<svg width="36" height="36" viewBox="0 0 36 36" fill="none" xmlns="http://www.w3.org/2000/svg">
<g clip-path="url(#clip0_1_219)">
<path d="M18 36C27.9411 36 36 27.9411 36 18C36 8.05888 27.9411 0 18 0C8.05888 0 0 8.05888 0 18C0 27.9411 8.05888 36 18 36Z" fill="#0056B0"/>
<path d="M18 36C27.9411 36 36 27.9411 36 18C36 8.05888 27.9411 0 18 0C8.05888 0 0 8.05888 0 18C0 27.9411 8.05888 36 18 36Z" fill="url(#paint0_linear_1_219)"/>
<path d="M13.274 23V15.3C13.274 14.4507 13.526 13.774 14.03 13.27C14.534 12.7567 15.2527 12.5 16.186 12.5C16.5033 12.5 16.8067 12.5327 17.096 12.598C17.3947 12.6633 17.6467 12.766 17.852 12.906L17.278 14.488C17.1567 14.404 17.0213 14.3387 16.872 14.292C16.7227 14.2453 16.564 14.222 16.396 14.222C16.0787 14.222 15.8313 14.3153 15.654 14.502C15.486 14.6793 15.402 14.95 15.402 15.314V16.014L15.458 16.952V23H13.274ZM12.112 17.316V15.636H17.334V17.316H12.112ZM23.0108 23.112C22.3481 23.112 21.7788 22.972 21.3028 22.692C20.8268 22.412 20.4628 21.9873 20.2108 21.418C19.9588 20.8393 19.8328 20.1113 19.8328 19.234C19.8328 18.3473 19.9634 17.6193 20.2248 17.05C20.4954 16.4807 20.8688 16.056 21.3448 15.776C21.8208 15.496 22.3761 15.356 23.0108 15.356C23.7201 15.356 24.3548 15.5147 24.9148 15.832C25.4841 16.1493 25.9321 16.5973 26.2588 17.176C26.5948 17.7547 26.7628 18.4407 26.7628 19.234C26.7628 20.018 26.5948 20.6993 26.2588 21.278C25.9321 21.8567 25.4841 22.3093 24.9148 22.636C24.3548 22.9533 23.7201 23.112 23.0108 23.112ZM18.5588 23V12.612H20.7428V16.994L20.6028 19.22L20.6448 21.46V23H18.5588ZM22.6328 21.32C22.9968 21.32 23.3188 21.236 23.5988 21.068C23.8881 20.9 24.1168 20.662 24.2848 20.354C24.4621 20.0367 24.5508 19.6633 24.5508 19.234C24.5508 18.7953 24.4621 18.422 24.2848 18.114C24.1168 17.806 23.8881 17.568 23.5988 17.4C23.3188 17.232 22.9968 17.148 22.6328 17.148C22.2688 17.148 21.9421 17.232 21.6528 17.4C21.3634 17.568 21.1348 17.806 20.9668 18.114C20.7988 18.422 20.7148 18.7953 20.7148 19.234C20.7148 19.6633 20.7988 20.0367 20.9668 20.354C21.1348 20.662 21.3634 20.9 21.6528 21.068C21.9421 21.236 22.2688 21.32 22.6328 21.32Z" fill="white"/>
</g>
<defs>
<linearGradient id="paint0_linear_1_219" x1="10.5" y1="-5.5" x2="18" y2="36" gradientUnits="userSpaceOnUse">
<stop stop-color="#0081F8"/>
<stop offset="1" stop-color="white" stop-opacity="0"/>
</linearGradient>
<clipPath id="clip0_1_219">
<rect width="36" height="36" fill="white"/>
</clipPath>
</defs>
</svg>
